<svg width="222" height="85" viewBox="0 0 222 85" fill="none" xmlns="http://www.w3.org/2000/svg">
<path d="M0.697266 84.2241L0.697265 78.2241L221.303 78.2241L221.303 84.2241L0.697266 84.2241Z" fill="#073535"/>
<path d="M96.293 42.224L96.293 6.224L100.495 6.224L100.495 42.224L96.293 42.224Z" fill="#073535"/>
<path d="M216.051 13.224L216.051 6.224L221.303 6.224L221.303 13.224L216.051 13.224Z" fill="#073535"/>
<path d="M216.051 44.224L216.051 36.224L221.303 36.224L221.303 44.224L216.051 44.224Z" fill="#073535"/>
<path d="M197.143 48.224L197.143 41.224L202.395 41.224L202.395 48.224L197.143 48.224Z" fill="#073535"/>
<path d="M19.6055 50.224L19.6055 42.224L21.7065 42.224L21.7065 50.224L19.6055 50.224Z" fill="#073535"/>
<path d="M19.6055 79.224L19.6055 73.224L21.7065 73.224L21.7065 79.224L19.6055 79.224Z" fill="#073535"/>
<path d="M197.143 79.224L197.143 72.224L202.395 72.224L202.395 79.224L197.143 79.224Z" fill="#073535"/>
<path d="M95.2422 8.224L95.2422 6.224L105.747 6.224L105.747 8.224L95.2422 8.224Z" fill="#073535"/>
<path d="M116.252 8.224L116.252 6.224L220.252 6.224L220.252 8.22399L116.252 8.224Z" fill="#073535"/>
<path d="M0.697266 42.2241L0.697266 40.2241L100.495 40.2241L100.495 42.2241L0.697266 42.2241Z" fill="#073535"/>
<path d="M197.143 44.224L197.143 41.224L220.254 41.224L220.254 44.224L197.143 44.224Z" fill="#073535"/>
<path d="M3.60182 77.1316L3.60182 42.5485L1.99388 42.5485L1.99389 77.1316L3.60182 77.1316ZM3.84906 42.224L3.84906 77.224L1.74805 77.224L1.74805 42.224L3.84906 42.224Z" fill="#073535"/>
<path d="M1.99214 77.8821L3.60664 77.8821L3.60664 75.5684L1.99214 75.5684L1.99214 77.8821ZM3.84906 78.224L1.74805 78.224L1.74805 75.224L3.84906 75.224L3.84906 78.224Z" fill="#073535"/>
<path d="M1.99214 45.1101L3.60664 45.1101L3.60664 44.3388L1.99214 44.3388L1.99214 45.1101ZM3.84906 45.224L1.74805 45.224L1.74805 44.224L3.84906 44.224L3.84906 45.224Z" fill="#073535"/>
<path d="M1.99055 55.9961L3.60488 55.9961L3.60488 54.4536L1.99055 54.4536L1.99055 55.9961ZM3.84906 56.224L1.74805 56.224L1.74805 54.224L3.84906 54.224L3.84906 56.224Z" fill="#073535"/>
<path d="M1.99055 66.996L3.60488 66.996L3.60488 65.4537L1.99055 65.4537L1.99055 66.996ZM3.84906 67.224L1.74805 67.224L1.74805 65.224L3.84906 65.224L3.84906 67.224Z" fill="#073535"/>
<path d="M4.89929 78.2241L4.89929 42.2241L0.697264 42.2241L0.697266 78.2241L4.89929 78.2241ZM1.00189 77.6651L1.00189 42.7817L4.59472 42.7817L4.59466 77.6651L1.00189 77.6651Z" fill="#073535"/>
<path d="M219.883 35.1658L219.883 13.4279L217.47 13.4279L217.47 35.1658L219.883 35.1658ZM220.253 13.224L220.253 35.224L217.102 35.224L217.102 13.224L220.253 13.224Z" fill="#073535"/>
<path d="M217.468 36.11L219.889 36.11L219.889 35.3388L217.468 35.3388L217.468 36.11ZM220.253 36.224L217.102 36.224L217.102 35.224L220.253 35.224L220.253 36.224Z" fill="#073535"/>
<path d="M217.466 14.996L219.886 14.996L219.886 13.4528L217.466 13.4528L217.466 14.996ZM220.253 15.224L217.102 15.224L217.102 13.224L220.253 13.224L220.253 15.224Z" fill="#073535"/>
<path d="M217.466 25.996L219.886 25.996L219.886 24.4537L217.466 24.4537L217.466 25.996ZM220.253 26.224L217.102 26.224L217.102 24.224L220.253 24.224L220.253 26.224Z" fill="#073535"/>
<path d="M221.303 36.224L221.303 13.224L216.051 13.224L216.051 36.224L221.303 36.224ZM216.432 35.8667L216.432 13.5806L220.923 13.5806L220.923 35.8667L216.432 35.8667Z" fill="#073535"/>
<path d="M219.883 77.1373L219.883 44.5298L217.47 44.5298L217.47 77.1373L219.883 77.1373ZM220.253 44.224L220.253 77.224L217.102 77.224L217.102 44.224L220.253 44.224Z" fill="#073535"/>
<path d="M217.468 78.11L219.889 78.11L219.889 77.3388L217.468 77.3388L217.468 78.11ZM220.253 78.224L217.102 78.224L217.102 77.224L220.253 77.224L220.253 78.224Z" fill="#073535"/>
<path d="M217.466 56.11L219.886 56.11L219.886 55.3384L217.466 55.3384L217.466 56.11ZM220.253 56.224L217.102 56.224L217.102 55.224L220.253 55.224L220.253 56.224Z" fill="#073535"/>
<path d="M217.466 45.9961L219.886 45.9961L219.886 44.4536L217.466 44.4536L217.466 45.9961ZM220.253 46.224L217.102 46.224L217.102 44.224L220.253 44.224L220.253 46.224Z" fill="#073535"/>
<path d="M217.466 66.996L219.886 66.996L219.886 65.4528L217.466 65.4528L217.466 66.996ZM220.253 67.224L217.102 67.224L217.102 65.224L220.253 65.224L220.253 67.224Z" fill="#073535"/>
<path d="M221.303 78.224L221.303 44.224L216.051 44.224L216.051 78.224L221.303 78.224ZM216.432 77.6957L216.432 44.7509L220.923 44.7509L220.923 77.6957L216.432 77.6957Z" fill="#073535"/>
<path d="M20.2864 72.1112L20.2864 60.3352L17.8747 60.3352L17.8747 72.1112L20.2864 72.1112ZM20.6574 60.224L20.6574 72.224L17.5059 72.224L17.5059 60.224L20.6574 60.224Z" fill="#073535"/>
<path d="M20.2979 73.1077L20.2979 72.3393L17.8674 72.3393L17.8674 73.1077L20.2979 73.1077ZM20.6574 72.224L20.6574 73.224L17.5059 73.224L17.5059 72.224L20.6574 72.224Z" fill="#073535"/>
<path d="M20.2979 60.1089L20.2979 59.3402L17.8674 59.3402L17.8674 60.1089L20.2979 60.1089ZM20.6574 59.224L20.6574 60.224L17.5059 60.224L17.5059 59.224L20.6574 59.224Z" fill="#073535"/>
<path d="M21.7076 73.224L21.7076 59.224L16.4551 59.224L16.4551 73.224L21.7076 73.224ZM16.8359 73.0065L16.8359 59.4408L21.3268 59.4408L21.3268 73.0065L16.8359 73.0065Z" fill="#073535"/>
<path d="M200.046 70.1213L200.046 59.326L198.437 59.326L198.437 70.1213L200.046 70.1213ZM200.292 59.224L200.292 70.224L198.191 70.224L198.191 59.224L200.292 59.224Z" fill="#073535"/>
<path d="M200.053 71.9914L200.053 70.4546L198.432 70.4546L198.432 71.9914L200.053 71.9914ZM200.292 70.224L200.292 72.224L198.191 72.224L198.191 70.224L200.292 70.224Z" fill="#073535"/>
<path d="M200.053 59.9928L200.053 58.4562L198.432 58.4562L198.432 59.9928L200.053 59.9928ZM200.292 58.224L200.292 60.224L198.191 60.224L198.191 58.224L200.292 58.224Z" fill="#073535"/>
<path d="M202.395 72.224L202.395 58.224L197.143 58.224L197.143 72.224L202.395 72.224ZM197.523 72.0058L197.523 58.4407L202.014 58.4407L202.014 72.0058L197.523 72.0058Z" fill="#073535"/>
<path d="M21.7073 48.6049L16.0261 58.224L15.4043 57.8424L21.0846 48.224L21.7073 48.6049Z" fill="#073535"/>
<path d="M201.344 46.605L195.663 56.224L195.041 55.8431L200.722 46.224L201.344 46.605Z" fill="#073535"/>
<path d="M134.936 77.9348L134.936 54.5132L128.034 54.5132L128.034 77.9348L134.936 77.9348ZM135.162 54.224L135.162 78.224L127.809 78.224L127.809 54.224L135.162 54.224Z" fill="#073535"/>
<path d="M134.924 76.9253L134.924 55.5213L130.15 55.5213L130.15 76.9253L134.924 76.9253ZM135.163 55.224L135.163 77.224L129.91 77.224L129.91 55.224L135.163 55.224Z" fill="#073535"/>
<path d="M134.925 75.05L134.925 63.4969L130.444 63.4969C132.627 65.1496 134.068 67.7703 134.419 70.7595L134.924 75.05L134.925 75.05ZM135.163 63.3608L135.163 77.0875C135.163 77.1595 135.114 77.2191 135.051 77.2236C134.989 77.2289 134.934 77.1772 134.925 77.1052L134.183 70.7955C133.822 67.7324 132.286 65.0645 129.969 63.478C129.922 63.4465 129.9 63.383 129.915 63.3241C129.929 63.2646 129.976 63.224 130.03 63.224L135.044 63.224C135.109 63.224 135.163 63.2842 135.163 63.3608Z" fill="#073535"/>
<path d="M5.94922 70.383L8.24445 70.4928C8.58143 70.5091 8.83761 70.5399 9.013 70.5843C9.18671 70.6287 9.27353 70.7242 9.27353 70.8705C9.27353 70.9 9.27178 70.9294 9.26835 70.9575C9.26309 70.9843 9.25356 71.015 9.23969 71.049L9.74253 71.049C9.75465 71.013 9.76509 70.9784 9.77378 70.9437C9.78247 70.9098 9.78682 70.8719 9.78682 70.83C9.78682 70.5484 9.65655 70.3582 9.39602 70.2582C9.13549 70.1569 8.78029 70.0961 8.33042 70.0752L6.39733 69.9837L6.39733 68.6074L9.74253 68.6074L9.74253 68.1493L5.94922 68.1493L5.94922 70.383ZM8.36427 67.58C8.79333 67.58 9.14327 67.4716 9.41424 67.2539C9.68521 67.035 9.82066 66.7429 9.82066 66.3782C9.82066 66.0148 9.68521 65.7247 9.41424 65.507C9.14327 65.2881 8.79333 65.179 8.36427 65.179L8.28095 65.179C7.85365 65.179 7.50455 65.2881 7.23357 65.507C6.96268 65.7247 6.82715 66.0155 6.82715 66.3802C6.82715 66.7435 6.96268 67.035 7.23357 67.2539C7.50455 67.4716 7.85365 67.58 8.28095 67.58L8.36427 67.58ZM8.28095 67.1265C7.99611 67.1265 7.75464 67.0637 7.55668 66.9389C7.35866 66.8134 7.25964 66.6278 7.25964 66.3802C7.25964 66.1318 7.35866 65.9449 7.55668 65.8194C7.75464 65.6946 7.99611 65.6319 8.28095 65.6319L8.36427 65.6319C8.65087 65.6319 8.89318 65.6946 9.0912 65.8194C9.28916 65.9449 9.38817 66.1318 9.38817 66.3802C9.38817 66.6278 9.28916 66.8134 9.0912 66.9389C8.89318 67.0637 8.65087 67.1265 8.36427 67.1265L8.28095 67.1265ZM10.4459 62.755L10.4459 62.342L9.32567 62.342L9.32567 64.964L10.4459 64.964L10.4459 64.5509L9.74253 64.5509L9.74253 62.755L10.4459 62.755ZM7.32222 64.1L7.32222 63.1328L9.74253 63.1328L9.74253 62.6884L6.90536 62.6884L6.90536 64.4908L8.04382 64.5307C8.4972 64.547 8.80369 64.5686 8.96353 64.5954C9.12154 64.6222 9.25097 64.6679 9.35174 64.732L9.35173 64.281C9.25447 64.2392 9.12589 64.2078 8.96612 64.1869C8.80636 64.1647 8.51366 64.1451 8.08811 64.1288L7.32222 64.1ZM9.74253 60.2893L6.90536 60.2893L6.90536 60.7311L9.74253 60.7311L9.74253 60.2893ZM9.74253 59.2214L9.74253 58.6855L8.09855 59.856L8.42685 60.1573L9.74253 59.2214ZM8.10115 60.5102L8.51542 60.5102L8.51542 59.9096L6.90536 58.7659L6.90536 59.2574L8.10115 60.09L8.10115 60.5102ZM9.74253 61.8055L8.44765 60.8788L8.11944 61.1689L9.74253 62.3309L9.74253 61.8055ZM8.10115 60.5102L8.10115 60.9304L6.90536 61.7519L6.90536 62.2525L8.51542 61.1245L8.51542 60.5102L8.10115 60.5102ZM9.74253 58.3882L9.74253 57.9366L7.91623 56.9315C7.86058 56.9007 7.80677 56.872 7.75464 56.8472C7.70082 56.8204 7.65135 56.7962 7.60615 56.7753L7.60615 56.7576C7.66004 56.7589 7.72079 56.7602 7.78855 56.7622C7.85456 56.7622 7.91447 56.7622 7.96829 56.7622L9.74253 56.7622L9.74253 56.3198L6.90536 56.3198L6.90536 56.7707L8.73685 57.7758C8.79241 57.8072 8.84714 57.8366 8.90095 57.8634C8.95309 57.8882 9.00172 57.9118 9.04692 57.9327L9.04692 57.9503C8.99303 57.949 8.93228 57.9484 8.86452 57.9484C8.79676 57.9464 8.73601 57.9457 8.68212 57.9457L6.90536 57.9457L6.90536 58.3882L9.74253 58.3882ZM9.74253 55.3349L8.60399 54.6938L8.5597 55.1493L9.74253 55.8329L9.74253 55.3349ZM9.74253 54.269L9.74253 53.8265L6.90536 53.8265L6.90536 54.8049C6.90536 55.1003 6.98959 55.3271 7.15804 55.4865C7.32481 55.646 7.54708 55.7257 7.82499 55.7257C8.09421 55.7257 8.3087 55.6486 8.46854 55.4957C8.62655 55.3408 8.70559 55.1199 8.70559 54.8343L8.73166 54.7938L8.73166 54.269L9.74253 54.269ZM8.3148 54.8049C8.3148 54.9781 8.26876 55.0996 8.17676 55.1696C8.08468 55.2395 7.96745 55.2741 7.82499 55.2741C7.68085 55.2741 7.56103 55.2395 7.46544 55.1696C7.36994 55.0996 7.32222 54.9781 7.32222 54.8049L7.32222 54.269L8.3148 54.269L8.3148 54.8049ZM15.0781 70.6287L15.0781 70.1935L11.2848 70.1935L11.2848 70.6222L13.8172 72.224L14.1949 72.224L14.1949 69.7197L13.7494 69.7197L13.7494 70.3477L13.7494 70.5261L13.7494 71.7012L12.0482 70.6555L12.0482 70.6287L13.9058 70.6287L14.0412 70.6287L15.0781 70.6287ZM14.7863 69.289C14.8835 69.289 14.9661 69.2629 15.0338 69.2106C15.1015 69.157 15.1354 69.0812 15.1354 68.9825C15.1354 68.8832 15.1015 68.8067 15.0338 68.7551C14.9661 68.7015 14.8835 68.6747 14.7863 68.6747C14.689 68.6747 14.6065 68.7015 14.5388 68.7551C14.4711 68.8067 14.4372 68.8832 14.4372 68.9825C14.4372 69.0812 14.4711 69.157 14.5388 69.2106C14.6065 69.2629 14.689 69.289 14.7863 69.289ZM15.0781 66.6305L15.0781 66.1952L11.2848 66.1952L11.2848 66.6239L13.8172 68.2257L14.1949 68.2257L14.1949 65.7214L13.7494 65.7214L13.7494 66.3494L13.7494 66.5279L13.7494 67.7029L12.0482 66.6572L12.0482 66.6305L13.9058 66.6305L14.0412 66.6305L15.0781 66.6305ZM15.0781 65.4312L15.0781 63.1459L14.6274 63.1459L14.6274 64.8457L13.5332 63.8785C13.3282 63.6968 13.1268 63.5445 12.9287 63.421C12.729 63.2968 12.5049 63.2354 12.2566 63.2354C11.9753 63.2354 11.7303 63.3328 11.5219 63.5282C11.3117 63.7229 11.2067 63.9798 11.2067 64.2987C11.2067 64.6235 11.3204 64.8934 11.5479 65.1097C11.7737 65.3254 12.0603 65.4332 12.4077 65.4332L12.4337 65.4332L12.4337 64.9777L12.4077 64.9777C12.1767 64.9777 11.9943 64.9136 11.8606 64.7855C11.7251 64.6561 11.6574 64.4934 11.6574 64.2987C11.6574 64.1078 11.7199 63.9588 11.845 63.8517C11.9682 63.7432 12.1141 63.6889 12.2827 63.6889C12.4494 63.6889 12.6057 63.7327 12.7516 63.8203C12.8957 63.9072 13.0564 64.0275 13.2335 64.1823L14.6691 65.4312L15.0781 65.4312ZM15.4038 63.204L15.4038 62.791L11.2848 61.3656L11.2848 61.7787L15.4038 63.204ZM15.0781 61.3702L15.0781 59.0848L14.6274 59.0848L14.6274 60.7847L13.5332 59.8174C13.3282 59.6358 13.1268 59.4835 12.9287 59.36C12.729 59.2364 12.5049 59.1744 12.2566 59.1744C11.9753 59.1744 11.7303 59.2717 11.5219 59.4671C11.3117 59.6619 11.2067 59.9187 11.2067 60.2377C11.2067 60.5625 11.3204 60.8324 11.5479 61.0487C11.7737 61.2643 12.0603 61.3722 12.4077 61.3722L12.4337 61.3722L12.4337 60.9167L12.4077 60.9167C12.1767 60.9167 11.9943 60.8526 11.8606 60.7245C11.7251 60.5951 11.6574 60.4324 11.6574 60.2377C11.6574 60.0468 11.7199 59.8978 11.845 59.7906C11.9682 59.6822 12.1141 59.6279 12.2827 59.6279C12.4494 59.6279 12.6057 59.6717 12.7516 59.7599C12.8957 59.8462 13.0564 59.9664 13.2335 60.1213L14.6691 61.3702L15.0781 61.3702ZM14.7863 58.5627C14.8835 58.5627 14.9661 58.5365 15.0338 58.4842C15.1015 58.4306 15.1354 58.3548 15.1354 58.2562C15.1354 58.1568 15.1015 58.0804 15.0338 58.0287C14.9661 57.9751 14.8835 57.9484 14.7863 57.9484C14.689 57.9484 14.6065 57.9751 14.5388 58.0287C14.4711 58.0804 14.4372 58.1568 14.4372 58.2562C14.4372 58.3548 14.4711 58.4306 14.5388 58.4842C14.6065 58.5365 14.689 58.5627 14.7863 58.5627ZM15.0781 57.3719L15.0781 55.0866L14.6274 55.0866L14.6274 56.7864L13.5332 55.8192C13.3282 55.6375 13.1268 55.4852 12.9287 55.3617C12.729 55.2375 12.5049 55.1761 12.2566 55.1761C11.9753 55.1761 11.7303 55.2735 11.5219 55.4689C11.3117 55.6636 11.2067 55.9205 11.2067 56.2394C11.2067 56.5642 11.3204 56.8341 11.5479 57.0504C11.7737 57.2661 12.0603 57.3739 12.4077 57.3739L12.4337 57.3739L12.4337 56.9184L12.4077 56.9184C12.1767 56.9184 11.9943 56.8543 11.8606 56.7262C11.7251 56.5968 11.6574 56.4341 11.6574 56.2394C11.6574 56.0485 11.7199 55.8995 11.845 55.7924C11.9682 55.6839 12.1141 55.6296 12.2827 55.6296C12.4494 55.6296 12.6057 55.6734 12.7516 55.761C12.8957 55.8479 13.0564 55.9682 13.2335 56.123L14.6691 57.3719L15.0781 57.3719ZM15.0781 53.6841L15.0781 53.224L11.2327 53.224L11.2327 53.324L11.7538 54.5552L12.2696 54.5552L11.8632 53.6841L15.0781 53.6841Z" fill="#36383D"/>
<path d="M205.545 70.1748L207.33 70.2963C207.592 70.3145 207.791 70.3487 207.928 70.3982C208.063 70.4484 208.13 70.5539 208.13 70.7169C208.13 70.7497 208.129 70.7824 208.126 70.8137C208.122 70.8435 208.115 70.8778 208.104 70.9156L208.495 70.9156C208.504 70.8756 208.513 70.837 208.519 70.7984C208.526 70.7606 208.529 70.7184 208.529 70.6718C208.529 70.3589 208.428 70.1464 208.226 70.0351C208.023 69.9223 207.747 69.8546 207.397 69.8313L205.893 69.7294L205.893 68.1969L208.495 68.1969L208.495 67.6875L205.545 67.6875L205.545 70.1748ZM207.423 67.0529C207.757 67.0529 208.029 66.9321 208.24 66.6898C208.45 66.446 208.556 66.1207 208.556 65.7147C208.556 65.3101 208.45 64.987 208.24 64.7446C208.029 64.5009 207.757 64.3793 207.423 64.3793L207.358 64.3793C207.026 64.3793 206.754 64.5009 206.544 64.7446C206.333 64.987 206.228 65.3108 206.228 65.7176C206.228 66.1222 206.333 66.446 206.544 66.6898C206.754 66.9321 207.026 67.0529 207.358 67.0529L207.423 67.0529ZM207.358 66.5479C207.137 66.5479 206.949 66.478 206.795 66.339C206.641 66.2001 206.564 65.9927 206.564 65.7176C206.564 65.4403 206.641 65.2322 206.795 65.0932C206.949 64.9535 207.137 64.8844 207.358 64.8844L207.423 64.8844C207.646 64.8844 207.834 64.9535 207.989 65.0932C208.143 65.2322 208.219 65.4403 208.219 65.7176C208.219 65.9927 208.143 66.2001 207.989 66.339C207.834 66.478 207.646 66.5479 207.423 66.5479L207.358 66.5479ZM209.042 61.6803L209.042 61.2204L208.171 61.2204L208.171 64.1406L209.042 64.1406L209.042 63.68L208.495 63.68L208.495 61.6803L209.042 61.6803ZM206.613 63.1779L206.613 62.1009L208.495 62.1009L208.495 61.6061L206.288 61.6061L206.288 63.6131L207.174 63.6575C207.527 63.6764 207.765 63.7004 207.889 63.7302C208.012 63.7601 208.112 63.8103 208.191 63.8816L208.191 63.3795C208.115 63.3329 208.015 63.298 207.891 63.2747C207.767 63.2499 207.539 63.2281 207.208 63.2099L206.613 63.1779ZM208.495 58.9346L206.288 58.9346L206.288 59.4273L208.495 59.4273L208.495 58.9346ZM208.495 57.7456L208.495 57.1489L207.217 58.4522L207.472 58.7876L208.495 57.7456ZM207.218 59.1806L207.54 59.1806L207.54 58.5118L206.288 57.2383L206.288 57.7856L207.218 58.7134L207.218 59.1806ZM208.495 60.6236L207.488 59.591L207.233 59.9141L208.495 61.208L208.495 60.6236ZM207.218 59.1806L207.218 59.6485L206.288 60.564L206.288 61.1207L207.54 59.8646L207.54 59.1806L207.218 59.1806ZM208.495 56.8177L208.495 56.3156L207.074 55.1964C207.031 55.1615 206.99 55.1295 206.949 55.1018C206.907 55.072 206.869 55.0451 206.834 55.0218L206.834 55.0021C206.875 55.0036 206.923 55.0058 206.975 55.0072C207.026 55.0072 207.073 55.0072 207.115 55.0072L208.495 55.0072L208.495 54.5145L206.288 54.5145L206.288 55.0167L207.713 56.1366C207.756 56.1708 207.799 56.2036 207.84 56.2334C207.881 56.2618 207.919 56.2872 207.954 56.3105L207.954 56.3302C207.912 56.3287 207.865 56.328 207.812 56.328C207.76 56.3258 207.712 56.3251 207.67 56.3251L206.288 56.3251L206.288 56.8177L208.495 56.8177ZM208.495 53.4179L207.61 52.704L207.575 53.2112L208.495 53.9724L208.495 53.4179ZM208.495 52.231L208.495 51.7391L206.288 51.7391L206.288 52.8285C206.288 53.1566 206.354 53.4092 206.485 53.5867C206.614 53.7643 206.788 53.8531 207.004 53.8531C207.213 53.8531 207.38 53.7679 207.504 53.5969C207.627 53.4244 207.689 53.1792 207.689 52.8605L207.709 52.8161L207.709 52.231L208.495 52.231ZM207.384 52.8285C207.384 53.0206 207.349 53.1559 207.277 53.2338C207.205 53.3117 207.115 53.3502 207.004 53.3502C206.892 53.3502 206.798 53.3117 206.724 53.2338C206.65 53.1559 206.613 53.0206 206.613 52.8285L206.613 52.231L207.384 52.231L207.384 52.8285ZM212.645 70.4484L212.645 69.963L209.695 69.963L209.695 70.4404L211.664 72.224L211.958 72.224L211.958 69.4354L211.611 69.4354L211.611 70.1348L211.611 70.3334L211.611 71.6418L210.288 70.4782L210.288 70.4484L211.733 70.4484L211.838 70.4484L212.645 70.4484ZM212.418 68.9559C212.494 68.9559 212.558 68.9268 212.61 68.8686C212.663 68.8089 212.69 68.7245 212.69 68.6153C212.69 68.504 212.663 68.4196 212.61 68.3613C212.558 68.3017 212.494 68.2718 212.418 68.2718C212.342 68.2718 212.278 68.3017 212.226 68.3613C212.173 68.4196 212.147 68.504 212.147 68.6153C212.147 68.7245 212.173 68.8089 212.226 68.8686C212.278 68.9268 212.342 68.9559 212.418 68.9559ZM212.645 66.4933L212.645 65.981L209.654 65.981L209.654 66.0931L210.059 67.4634L210.461 67.4634L210.145 66.4933L212.645 66.4933ZM212.645 63.0258L212.645 62.5411L209.695 62.5411L209.695 63.0185L211.664 64.8021L211.958 64.8021L211.958 62.0136L211.611 62.0136L211.611 62.7129L211.611 62.9115L211.611 64.22L210.288 63.0556L210.288 63.0258L211.733 63.0258L211.838 63.0258L212.645 63.0258ZM212.898 62.1802L212.898 61.7203L209.695 60.1332L209.695 60.5938L212.898 62.1802ZM212.645 60.1383L212.645 57.5935L212.294 57.5935L212.294 59.487L211.443 58.41C211.284 58.2077 211.127 58.0374 210.974 57.8998C210.818 57.7623 210.644 57.6932 210.451 57.6932C210.232 57.6932 210.041 57.8016 209.879 58.0192C209.716 58.236 209.634 58.5228 209.634 58.8772C209.634 59.2388 209.722 59.5394 209.899 59.7802C210.075 60.0204 210.298 60.1404 210.568 60.1404L210.588 60.1404L210.588 59.6332L210.568 59.6332C210.388 59.6332 210.247 59.5619 210.142 59.4193C210.037 59.2752 209.985 59.0947 209.985 58.8772C209.985 58.6647 210.033 58.4995 210.131 58.3801C210.226 58.2586 210.34 58.1982 210.471 58.1982C210.601 58.1982 210.722 58.247 210.835 58.3452C210.947 58.4413 211.073 58.5751 211.21 58.7476L212.327 60.1383L212.645 60.1383ZM212.418 57.012C212.494 57.012 212.558 56.9829 212.61 56.9247C212.663 56.865 212.69 56.7806 212.69 56.6707C212.69 56.5601 212.663 56.4757 212.61 56.4175C212.558 56.3578 212.494 56.328 212.418 56.328C212.342 56.328 212.278 56.3578 212.226 56.4175C212.173 56.4757 212.147 56.5601 212.147 56.6707C212.147 56.7806 212.173 56.865 212.226 56.9247C212.278 56.9829 212.342 57.012 212.418 57.012ZM211.648 55.6862C211.967 55.6862 212.223 55.577 212.416 55.358C212.609 55.1375 212.706 54.8318 212.706 54.4425C212.706 54.0561 212.609 53.7526 212.416 53.5322C212.223 53.3102 211.967 53.1989 211.648 53.1989L210.691 53.1989C210.374 53.1989 210.119 53.3102 209.925 53.5322C209.731 53.7526 209.634 54.0561 209.634 54.4425C209.634 54.8318 209.731 55.1375 209.925 55.358C210.119 55.577 210.374 55.6862 210.691 55.6862L211.648 55.6862ZM211.668 55.1709L210.671 55.1709C210.471 55.1709 210.307 55.112 210.179 54.9948C210.049 54.8755 209.985 54.6914 209.985 54.4425C209.985 54.1951 210.049 54.0124 210.179 53.8931C210.307 53.773 210.471 53.7133 210.671 53.7133L211.668 53.7133C211.869 53.7133 212.034 53.773 212.163 53.8931C212.291 54.0124 212.355 54.1951 212.355 54.4425C212.355 54.6914 212.291 54.8755 212.163 54.9948C212.034 55.112 211.869 55.1709 211.668 55.1709ZM212.645 52.2063L212.645 51.6794L209.944 50.224L209.695 50.224L209.695 52.7833L210.051 52.7833L210.051 50.761L212.645 52.2063Z" fill="#36383D"/>
<path d="M58.0995 74.224C58.8779 74.224 59.4854 74.0307 59.9218 73.6435C60.3589 73.2543 60.5767 72.7668 60.5767 72.1809C60.5767 71.5951 60.4107 71.1474 60.0779 70.8386C59.7451 70.5271 59.3456 70.3497 58.8794 70.3066L58.8446 70.3032L58.8446 70.9548L58.8794 70.9581C59.1632 70.9867 59.4172 71.0976 59.6415 71.2922C59.8657 71.4868 59.9771 71.7831 59.9771 72.1809C59.9771 72.5854 59.8111 72.9169 59.4783 73.1766C59.1433 73.4363 58.6842 73.5658 58.0995 73.5658L57.8015 73.5658C57.2011 73.5658 56.7378 73.4363 56.412 73.1766C56.0863 72.9169 55.9238 72.5854 55.9238 72.1809C55.9238 71.7744 56.0352 71.4742 56.2595 71.2796C56.4816 71.0823 56.7356 70.9754 57.0216 70.9581L57.0564 70.9548L57.0564 70.3032L57.0216 70.3066C56.5554 70.3345 56.1559 70.5078 55.8231 70.8253C55.4903 71.1435 55.3242 71.5951 55.3242 72.1809C55.3242 72.7668 55.5421 73.2543 55.9792 73.6435C56.4156 74.0307 57.023 74.224 57.8015 74.224L58.0995 74.224ZM56.7413 69.5441L60.4731 69.5441L60.4731 68.9151L57.2785 68.9151L57.2785 67.3164L60.4731 67.3164L60.4731 66.6874L56.7413 66.6874L56.7413 69.5441ZM59.3747 65.9122C59.7536 65.9122 60.0431 65.7933 60.2439 65.5549C60.4426 65.3151 60.542 65.0242 60.542 64.6828C60.542 64.3826 60.4831 64.1368 60.3653 63.9469C60.2475 63.7563 60.1112 63.6181 59.9565 63.5318C60.0516 63.5251 60.146 63.5085 60.2411 63.4826C60.3355 63.4567 60.4128 63.4288 60.4731 63.3982L60.4731 62.7885L60.4178 62.7885C60.3156 62.8277 60.1992 62.8589 60.0672 62.8828C59.9338 62.9047 59.7912 62.9154 59.6415 62.9154L57.8916 62.9154C57.4758 62.9154 57.1628 63.0356 56.9528 63.2754C56.7427 63.5132 56.637 63.8506 56.637 64.2869C56.637 64.722 56.7491 65.0667 56.9733 65.3218C57.1955 65.5768 57.4552 65.7043 57.7532 65.7043L57.7702 65.7043L57.7702 65.0753L57.7532 65.0753C57.6006 65.0753 57.4665 65.0156 57.3509 64.8967C57.2352 64.7778 57.1777 64.5799 57.1777 64.3036C57.1777 64.0246 57.2451 63.8287 57.3785 63.7164C57.5105 63.6015 57.6815 63.5444 57.8916 63.5444L58.1754 63.5444L58.1754 64.3713C58.1754 64.817 58.2804 65.1856 58.4912 65.4772C58.7012 65.7668 58.9957 65.9122 59.3747 65.9122ZM59.3399 65.2826C59.132 65.2826 58.9666 65.2009 58.8446 65.0362C58.7197 64.8701 58.6573 64.6257 58.6573 64.3036L58.6573 63.5444L59.1802 63.5444C59.3768 63.5444 59.5641 63.6473 59.7415 63.8526C59.9175 64.0578 60.0048 64.2869 60.0048 64.54C60.0048 64.7951 59.9459 64.983 59.8281 65.1046C59.7103 65.2235 59.5478 65.2826 59.3399 65.2826ZM57.2785 61.0829L57.2785 59.7598L60.4731 59.7598L60.4731 59.1275L56.7413 59.1275L56.7413 61.6375L58.6849 61.7152C59.1653 61.7351 59.4932 61.7736 59.6692 61.8321C59.8444 61.8885 59.9324 61.9988 59.9324 62.1628C59.9324 62.2107 59.9289 62.2545 59.9218 62.2957C59.9154 62.3349 59.9033 62.3727 59.887 62.4093L60.4767 62.4093C60.4973 62.3661 60.5122 62.3163 60.5214 62.2605C60.5327 62.202 60.5384 62.1349 60.5384 62.0592C60.5384 61.7324 60.3979 61.5046 60.1162 61.3751C59.8317 61.2449 59.3846 61.1672 58.775 61.1413L57.2785 61.0829ZM56.7413 57.5314L56.7413 58.1611L60.4731 58.1611L60.4731 56.7503C60.4731 56.3219 60.361 55.9925 60.1368 55.7606C59.9125 55.5295 59.6145 55.4139 59.2427 55.4139C58.873 55.4139 58.5785 55.5295 58.3592 55.7606C58.1399 55.9925 58.03 56.3219 58.03 56.7503L58.03 57.5314L56.7413 57.5314ZM58.5671 56.7503C58.5671 56.4926 58.631 56.3119 58.758 56.2083C58.885 56.1047 59.0468 56.0529 59.2427 56.0529C59.4414 56.0529 59.6067 56.1047 59.7387 56.2083C59.87 56.3119 59.936 56.4926 59.936 56.7503L59.936 57.5314L58.5671 57.5314L58.5671 56.7503ZM56.7413 54.7358L60.4731 54.7358L60.4731 54.1068L58.8481 54.1068L58.8481 52.4755L60.4731 52.4755L60.4731 51.8465L56.7413 51.8465L56.7413 52.4755L58.311 52.4755L58.311 54.1068L56.7413 54.1068L56.7413 54.7358ZM60.4731 50.4165L58.9588 49.466L58.8999 50.105L60.4731 51.1199L60.4731 50.4165ZM60.4731 48.853L60.4731 48.224L56.7413 48.224L56.7413 49.654C56.7413 50.0778 56.8506 50.4052 57.0706 50.637C57.2898 50.8662 57.5822 50.9804 57.9469 50.9804C58.2982 50.9804 58.5778 50.8682 58.7857 50.643C58.9936 50.4185 59.0972 50.0984 59.0972 49.6832L59.132 49.6248L59.132 48.853L60.4731 48.853ZM58.5948 49.654C58.5948 49.9071 58.5352 50.0851 58.4146 50.1894C58.2925 50.291 58.1364 50.3415 57.9469 50.3415C57.7553 50.3415 57.5957 50.291 57.4687 50.1894C57.3416 50.0851 57.2785 49.9071 57.2785 49.654L57.2785 48.853L58.5948 48.853L58.5948 49.654Z" fill="#36383D"/>
<path d="M182.328 41.224L182.328 40.5592L177.772 40.5592L177.772 38.1568L177.182 38.1568L177.182 41.224L182.328 41.224ZM180.479 37.7136C181.054 37.7136 181.524 37.5564 181.89 37.2433C182.252 36.9282 182.434 36.5067 182.434 35.9794C182.434 35.4542 182.252 35.0354 181.89 34.7216C181.524 34.4065 181.054 34.2486 180.479 34.2486L180.366 34.2486C179.793 34.2486 179.326 34.4065 178.963 34.7216C178.598 35.0354 178.415 35.4556 178.415 35.9828C178.415 36.508 178.598 36.9282 178.963 37.2433C179.326 37.5564 179.793 37.7136 180.366 37.7136L180.479 37.7136ZM180.366 37.0549C179.982 37.0549 179.657 36.9654 179.391 36.7865C179.122 36.6056 178.988 36.3366 178.988 35.9794C178.988 35.6243 179.122 35.356 179.391 35.175C179.657 34.9948 179.982 34.9039 180.366 34.9039L180.479 34.9039C180.868 34.9039 181.197 34.9948 181.466 35.175C181.732 35.356 181.865 35.6243 181.865 35.9794C181.865 36.3366 181.732 36.6056 181.466 36.7865C181.197 36.9654 180.869 37.0549 180.483 37.0549L180.366 37.0549ZM180.479 33.6828C181.054 33.6828 181.524 33.5316 181.89 33.2294C182.252 32.9272 182.434 32.5124 182.434 31.9852C182.434 31.4959 182.299 31.1238 182.027 30.8704C181.754 30.6142 181.449 30.4861 181.112 30.4861L181.094 30.4861L181.094 31.1116L181.112 31.1116C181.31 31.1116 181.485 31.1814 181.639 31.3204C181.789 31.4573 181.865 31.6789 181.865 31.9852C181.865 32.343 181.732 32.6053 181.466 32.7733C181.197 32.9407 180.869 33.0247 180.483 33.0247L180.366 33.0247C179.979 33.0247 179.654 32.9407 179.387 32.7733C179.119 32.6053 178.984 32.343 178.984 31.9852C178.984 31.6789 179.061 31.4573 179.214 31.3204C179.365 31.1814 179.54 31.1116 179.741 31.1116L179.758 31.1116L179.758 30.4861L179.741 30.4861C179.403 30.4861 179.099 30.6135 178.825 30.867C178.552 31.1204 178.415 31.4925 178.415 31.9825C178.415 32.5117 178.598 32.9272 178.963 33.2294C179.326 33.5316 179.793 33.6828 180.366 33.6828L180.479 33.6828ZM179.069 30.2083L179.069 29.0739L182.328 29.0739L182.328 28.4314L179.069 28.4314L179.069 27.2963L178.521 27.2963L178.521 30.2083L179.069 30.2083ZM182.328 26.6844L182.328 26.0324L179.889 24.5802C179.814 24.5361 179.739 24.4948 179.666 24.4575C179.594 24.4175 179.527 24.3836 179.468 24.3552L179.468 24.3186C179.539 24.3226 179.62 24.326 179.712 24.3287C179.804 24.3287 179.887 24.3287 179.96 24.3287L182.328 24.3287L182.328 23.6897L178.521 23.6897L178.521 24.3416L180.967 25.7946C181.042 25.8386 181.115 25.8806 181.186 25.9199C181.257 25.9579 181.323 25.9918 181.384 26.0229L181.384 26.0528C181.311 26.05 181.23 26.0494 181.141 26.0494C181.049 26.0467 180.966 26.046 180.893 26.046L178.521 26.046L178.521 26.6844L182.328 26.6844ZM178.521 22.707L182.328 22.707L182.328 22.0653L180.67 22.0653L180.67 20.4009L182.328 20.4009L182.328 19.7585L178.521 19.7585L178.521 20.4009L180.122 20.4009L180.122 22.0653L178.521 22.0653L178.521 22.707ZM181.207 18.9676C181.594 18.9676 181.89 18.8463 182.095 18.6037C182.297 18.359 182.399 18.0622 182.399 17.7139C182.399 17.4069 182.339 17.1568 182.218 16.9623C182.098 16.7685 181.959 16.6276 181.801 16.5388C181.898 16.5327 181.995 16.5157 182.091 16.4893C182.188 16.4629 182.267 16.4344 182.328 16.4033L182.328 15.7811L182.271 15.7811C182.168 15.8211 182.048 15.853 181.914 15.8774C181.778 15.8991 181.633 15.9106 181.479 15.9106L179.694 15.9106C179.271 15.9106 178.951 16.0326 178.737 16.2779C178.522 16.5205 178.415 16.8648 178.415 17.31C178.415 17.7532 178.53 18.1056 178.758 18.3658C178.984 18.6261 179.249 18.7562 179.553 18.7562L179.571 18.7562L179.571 18.1144L179.553 18.1144C179.397 18.1144 179.261 18.0534 179.143 17.9321C179.025 17.8108 178.967 17.6089 178.967 17.3269C178.967 17.0423 179.035 16.8424 179.172 16.7279C179.306 16.6106 179.48 16.5523 179.694 16.5523L179.985 16.5523L179.985 17.3961C179.985 17.8508 180.092 18.2269 180.306 18.5244C180.52 18.8199 180.821 18.9676 181.207 18.9676ZM181.172 18.3258C180.96 18.3258 180.792 18.2418 180.666 18.0744C180.539 17.9043 180.476 17.6556 180.476 17.3269L180.476 16.5523L181.01 16.5523C181.21 16.5523 181.4 16.6574 181.582 16.8668C181.761 17.0762 181.851 17.31 181.851 17.5682C181.851 17.8284 181.791 18.0202 181.67 18.1442C181.55 18.2655 181.384 18.3258 181.172 18.3258ZM182.328 14.461L180.783 13.4913L180.723 14.1432L182.328 15.1794L182.328 14.461ZM182.328 12.8664L182.328 12.224L178.521 12.224L178.521 13.6837C178.521 14.1161 178.633 14.4502 178.857 14.686C179.081 14.9198 179.379 15.0371 179.751 15.0371C180.109 15.0371 180.394 14.9219 180.606 14.6928C180.818 14.4631 180.925 14.1371 180.925 13.7135L180.96 13.6539L180.96 12.8664L182.328 12.8664ZM180.412 13.6837C180.412 13.9412 180.351 14.1235 180.228 14.2293C180.103 14.3329 179.945 14.3851 179.751 14.3851C179.555 14.3851 179.393 14.3329 179.264 14.2293C179.134 14.1235 179.069 13.9412 179.069 13.6837L179.069 12.8664L180.412 12.8664L180.412 13.6837Z" fill="#36383D"/>
<path d="M170.477 69.2298L170.477 68.3963L167.735 70.8073L168.012 71.3877L170.477 69.2298ZM167.696 71.8828L168.255 71.8828L168.255 70.8961L165.627 68.5334L165.627 69.3151L167.696 71.1758L167.696 71.8828ZM170.477 72.224L170.477 71.538L165.627 71.538L165.627 72.224L170.477 72.224ZM171.863 68.274C171.886 68.2075 171.902 68.1383 171.913 68.0656C171.925 67.9901 171.93 67.9048 171.93 67.8097C171.93 67.5223 171.843 67.281 171.67 67.0852C171.497 66.8874 171.255 66.7293 170.943 66.6112L166.889 65.0777L166.889 65.7063L169.228 66.5391C169.319 66.5734 169.407 66.6056 169.491 66.6349C169.575 66.6622 169.659 66.6846 169.741 66.7028L169.741 66.7237C169.659 66.7398 169.575 66.7622 169.491 66.7916C169.407 66.8188 169.319 66.8496 169.228 66.8839L166.889 67.7719L166.889 68.4271L170.451 67.0237L170.454 67.0237C170.874 67.174 171.132 67.3076 171.227 67.4237C171.323 67.5376 171.37 67.6782 171.37 67.8467C171.37 67.9173 171.364 67.9915 171.353 68.0691C171.343 68.1439 171.328 68.2124 171.31 68.274L171.863 68.274ZM170.477 65.0127L170.477 64.2617L168.821 63.1387L168.821 63.0842L166.889 61.7283L166.889 62.4793L168.495 63.538L168.495 63.596L170.477 65.0127ZM166.889 64.9414L168.821 63.589L168.821 63.5554L170.477 62.4318L170.477 61.657L168.495 63.0772L168.495 63.1114L166.889 64.1666L166.889 64.9414ZM166.889 61.0794L170.477 61.0794L170.477 60.4172L168.915 60.4172L168.915 58.6999L170.477 58.6999L170.477 58.0377L166.889 58.0377L166.889 58.6999L168.398 58.6999L168.398 60.4172L166.889 60.4172L166.889 61.0794ZM170.477 56.5322L169.021 55.5316L168.965 56.2043L170.477 57.2727L170.477 56.5322ZM170.477 54.8862L170.477 54.224L166.889 54.224L166.889 55.7295C166.889 56.1756 166.995 56.5203 167.206 56.7644C167.417 57.0056 167.698 57.1259 168.048 57.1259C168.386 57.1259 168.655 57.0077 168.855 56.7707C169.055 56.5343 169.154 56.1973 169.154 55.7602L169.188 55.6987L169.188 54.8862L170.477 54.8862ZM168.671 55.7295C168.671 55.9959 168.614 56.184 168.499 56.2931C168.381 56.4001 168.231 56.4532 168.048 56.4532C167.864 56.4532 167.711 56.4001 167.589 56.2931C167.466 56.184 167.406 55.9959 167.406 55.7295L167.406 54.8862L168.671 54.8862L168.671 55.7295Z" fill="#36383D"/>
<path d="M114.133 72.224C115.013 72.224 115.699 72.0162 116.192 71.6019C116.684 71.1849 116.931 70.6624 116.931 70.034C116.931 69.4062 116.743 68.9265 116.368 68.5955C115.992 68.2617 115.541 68.0717 115.014 68.0254L114.975 68.0219L114.975 68.7208L115.014 68.7244C115.335 68.7543 115.622 68.8738 115.874 69.0817C116.128 69.2902 116.254 69.6076 116.254 70.034C116.254 70.4674 116.067 70.8233 115.691 71.1009C115.313 71.3792 114.794 71.518 114.133 71.518L113.798 71.518C113.119 71.518 112.597 71.3792 112.229 71.1009C111.861 70.8233 111.677 70.4674 111.677 70.034C111.677 69.5984 111.804 69.2767 112.057 69.0681C112.307 68.8575 112.594 68.7429 112.917 68.7244L112.957 68.7208L112.957 68.0219L112.917 68.0254C112.39 68.0553 111.939 68.2411 111.563 68.5813C111.188 68.9222 111 69.4062 111 70.034C111 70.6624 111.247 71.1849 111.74 71.6019C112.232 72.0162 112.919 72.224 113.798 72.224L114.133 72.224ZM117.303 68.071L117.303 67.4382L111.118 65.2553L111.118 65.8881L117.303 68.071ZM116.098 65.0297L116.826 65.0297C116.851 64.9692 116.871 64.9073 116.884 64.8418C116.897 64.777 116.904 64.6824 116.904 64.5571C116.904 64.1792 116.78 63.8817 116.532 63.6639C116.284 63.4439 115.899 63.2247 115.378 63.0069L111.118 61.224L111.118 61.9614L113.962 63.0973C114.069 63.1414 114.166 63.1784 114.251 63.2091C114.335 63.2368 114.421 63.2681 114.509 63.3023L114.509 63.33C114.421 63.3649 114.335 63.3984 114.251 63.4311C114.166 63.461 114.069 63.4994 113.962 63.5457L111.118 64.755L111.118 65.5514L115.331 63.6817C115.618 63.8062 115.829 63.9308 115.965 64.0532C116.1 64.1735 116.169 64.3486 116.169 64.5777C116.169 64.671 116.161 64.7543 116.148 64.8283C116.136 64.9023 116.119 64.9692 116.098 65.0297Z" fill="#36383D"/>
<path fill-rule="evenodd" clip-rule="evenodd" d="M116.252 31.224C116.252 22.9405 123.306 16.224 132.01 16.224C140.713 16.224 147.767 22.9391 147.767 31.224C147.767 39.5082 140.713 46.224 132.01 46.224C123.308 46.224 116.252 39.5082 116.252 31.224Z" fill="#073535"/>
<path d="M119.404 31.224C119.404 23.4915 125.518 17.224 133.061 17.224C140.604 17.224 146.717 23.4915 146.717 31.224C146.717 38.9565 140.604 45.224 133.061 45.224C125.518 45.224 119.404 38.9565 119.404 31.224Z" stroke="#FEFEFE" stroke-width="0.535011" stroke-miterlimit="22.9256"/>
<path d="M135.1 41.8746L130.955 39.5931L130.917 39.5931L130.917 42.224L130.413 42.224L130.413 38.9486L130.948 38.9486L135.1 41.2232L135.1 41.8746ZM135.1 38.4141L134.691 38.4141L132.993 36.729C132.795 36.5323 132.624 36.3713 132.477 36.2461C132.33 36.1182 132.192 36.0233 132.062 35.9614C131.932 35.8974 131.795 35.8658 131.653 35.8658C131.487 35.8658 131.344 35.9091 131.225 35.9958C131.104 36.0804 131.01 36.1959 130.945 36.3417C130.88 36.4882 130.848 36.6533 130.848 36.8383C130.848 37.0351 130.885 37.2063 130.958 37.3522C131.031 37.4966 131.135 37.608 131.269 37.6878C131.401 37.7655 131.556 37.8047 131.735 37.8047L131.735 38.3935C131.46 38.3935 131.219 38.3254 131.011 38.1886C130.804 38.0489 130.642 37.8605 130.527 37.6232C130.41 37.3831 130.351 37.1149 130.351 36.8177C130.351 36.5185 130.41 36.2537 130.527 36.0233C130.642 35.7929 130.799 35.612 130.996 35.482C131.19 35.3492 131.409 35.2832 131.653 35.2832C131.825 35.2832 131.992 35.3176 132.156 35.3864C132.317 35.4524 132.499 35.5686 132.7 35.7358C132.902 35.9002 133.146 36.1285 133.433 36.4208L134.559 37.5647L134.597 37.5647L134.597 35.1945L135.1 35.1945L135.1 38.4141ZM136.213 34.5844L134.446 34.2831L134.446 33.6049L136.213 34.1325L136.213 34.5844ZM135.163 31.2477C135.163 31.4555 135.128 31.6646 135.059 31.875C134.988 32.0848 134.869 32.2767 134.704 32.45C134.536 32.6213 134.309 32.7596 134.021 32.8648C133.734 32.97 133.375 33.0223 132.943 33.0223C132.527 33.0223 132.159 32.9804 131.838 32.8958C131.517 32.8091 131.247 32.6853 131.027 32.5257C130.804 32.3634 130.637 32.168 130.524 31.9397C130.408 31.7113 130.351 31.4534 130.351 31.1659C130.351 30.8804 130.403 30.6266 130.508 30.4051C130.613 30.1816 130.758 29.9986 130.945 29.857C131.13 29.7153 131.342 29.6238 131.584 29.5832L131.584 30.1857C131.374 30.2428 131.2 30.3536 131.061 30.518C130.923 30.6803 130.854 30.8963 130.854 31.1659C130.854 31.5607 131.012 31.8723 131.329 32.1006C131.644 32.3269 132.087 32.4397 132.659 32.4397L132.659 32.3991C132.529 32.3049 132.418 32.1942 132.326 32.0662C132.232 31.939 132.16 31.7973 132.112 31.6419C132.062 31.4864 132.036 31.3206 132.036 31.1452C132.036 30.8529 132.103 30.5854 132.238 30.3432C132.37 30.1011 132.554 29.9072 132.788 29.7614C133.021 29.6148 133.288 29.5419 133.591 29.5419C133.88 29.5419 134.144 29.6128 134.383 29.7545C134.62 29.8934 134.809 30.0908 134.952 30.3467C135.093 30.6026 135.163 30.9031 135.163 31.2477ZM134.66 31.2477C134.66 31.0379 134.612 30.8495 134.518 30.6823C134.422 30.5159 134.293 30.3831 134.131 30.2855C133.968 30.1871 133.788 30.1376 133.591 30.1376C133.395 30.1376 133.219 30.1857 133.062 30.282C132.902 30.3756 132.776 30.5042 132.681 30.6686C132.587 30.8309 132.54 31.0173 132.54 31.2271C132.54 31.4376 132.589 31.6281 132.688 31.7994C132.786 31.9686 132.916 32.1034 133.078 32.2038C133.237 32.3015 133.41 32.351 133.596 32.351C133.783 32.351 133.958 32.3029 134.122 32.2072C134.283 32.111 134.413 31.981 134.512 31.8166C134.61 31.6501 134.66 31.4603 134.66 31.2477ZM134.37 25.1777L131.584 23.8413L131.584 23.2869L135.1 24.9377L135.1 25.4171L131.584 27.041L131.584 26.4928L134.37 25.1777ZM131.584 26.6847L135.1 26.6847L135.1 27.2673L131.584 27.2673L131.584 26.6847ZM135.1 23.67L131.584 23.67L131.584 23.0881L135.1 23.0881L135.1 23.67ZM132.76 22.5261L132.401 22.5261L131.452 21.3617C131.309 21.1856 131.187 21.0542 131.087 20.9675C130.984 20.8781 130.873 20.8341 130.753 20.8341C130.617 20.8341 130.509 20.8912 130.429 21.0054C130.348 21.1195 130.307 21.2606 130.307 21.4298C130.307 21.61 130.351 21.7551 130.439 21.8651C130.525 21.9745 130.638 22.0282 130.778 22.0261L130.778 22.5468C130.518 22.5468 130.31 22.4415 130.153 22.2318C129.994 22.0192 129.913 21.7496 129.91 21.4229C129.91 21.2014 129.947 21.0088 130.021 20.8437C130.094 20.6773 130.194 20.5473 130.319 20.4537C130.445 20.3602 130.588 20.3134 130.747 20.3134C130.871 20.3134 130.986 20.3402 131.093 20.3953C131.2 20.4503 131.311 20.5356 131.426 20.6525C131.539 20.7688 131.67 20.918 131.817 21.101L132.338 21.7517L132.357 21.7517L132.357 20.224L132.76 20.224L132.76 22.5261Z" fill="#FAF9F4"/>
<path d="M107.459 0.707965L116.805 8.23279L117.433 7.52458L108.086 -0.000243795L107.459 0.707965Z" fill="#073535"/>
</svg>
