<svg width="154" height="44" viewBox="0 0 154 44" fill="none" xmlns="http://www.w3.org/2000/svg">
<g clip-path="url(#clip0_1601_176487)">
<path d="M72.8161 34.7048L71.5957 32.8811L71.9257 32.6929L73.2666 34.7048H72.8161ZM70.8153 33.0274V32.6878H71.8628V33.0274H70.8153ZM71.9415 32.9177L71.5853 32.8548L72.7532 31.0469H73.1724L71.9415 32.9177ZM68.6731 34.7048H68.2227L69.5635 32.6929L69.8935 32.8811L68.6731 34.7048ZM70.9357 34.7048H70.5586V31.0469H70.9357V34.7048ZM70.674 33.0274H69.6264V32.6878H70.674V33.0274ZM69.5477 32.9177L68.3169 31.0469H68.736L69.8986 32.8548L69.5477 32.9177Z" fill="white"/>
<path d="M74.0898 34.7048V31.0469H74.4723V34.0775L76.8187 31.0469H77.1696V34.7048H76.7874V31.6792L74.4407 34.7048H74.0898Z" fill="white"/>
<path d="M78.2933 34.7361C78.2443 34.7361 78.1972 34.7324 78.1517 34.7257C78.1063 34.722 78.0556 34.7135 78 34.6994L78.0313 34.3545C78.0908 34.3686 78.1484 34.3754 78.2042 34.3754C78.3613 34.3754 78.4871 34.3144 78.5813 34.1926C78.6789 34.0671 78.7522 33.8756 78.8013 33.6178C78.8501 33.3566 78.8817 33.0221 78.8958 32.6145L78.948 31.0469H81.436V34.7048H81.0538V31.277L81.1533 31.3814H79.1942L79.2884 31.2717L79.2413 32.6041C79.2272 32.9699 79.2013 33.2869 79.1629 33.5552C79.1243 33.82 79.0684 34.0411 78.9951 34.2188C78.9217 34.3929 78.8275 34.5234 78.7125 34.6106C78.5971 34.6941 78.4572 34.7361 78.2933 34.7361Z" fill="white"/>
<path d="M84.4903 34.7354C84.2145 34.7354 83.9578 34.69 83.7203 34.5997C83.4865 34.5055 83.282 34.3749 83.1074 34.2077C82.9365 34.037 82.802 33.8402 82.7041 33.6173C82.6099 33.3909 82.5625 33.1435 82.5625 32.8753C82.5625 32.607 82.6099 32.3616 82.7041 32.1385C82.802 31.9121 82.9365 31.7152 83.1074 31.5482C83.282 31.3773 83.4865 31.2467 83.7203 31.1562C83.9541 31.0622 84.2108 31.0151 84.4903 31.0151C84.7662 31.0151 85.0211 31.0622 85.255 31.1562C85.4891 31.2467 85.6916 31.3756 85.8625 31.5429C86.0374 31.7101 86.1716 31.907 86.2658 32.1332C86.3637 32.3597 86.4125 32.607 86.4125 32.8753C86.4125 33.1435 86.3637 33.3909 86.2658 33.6173C86.1716 33.8435 86.0374 34.0404 85.8625 34.2077C85.6916 34.3749 85.4891 34.5055 85.255 34.5997C85.0211 34.69 84.7662 34.7354 84.4903 34.7354ZM84.4903 34.3907C84.71 34.3907 84.9128 34.3541 85.0979 34.281C85.2863 34.2043 85.4487 34.098 85.585 33.962C85.7246 33.8227 85.8329 33.6628 85.9096 33.4814C85.9866 33.2969 86.025 33.0947 86.025 32.8753C86.025 32.6558 85.9866 32.4556 85.9096 32.2745C85.8329 32.0898 85.7246 31.9295 85.585 31.7936C85.4487 31.6543 85.2863 31.5482 85.0979 31.4749C84.9128 31.3982 84.71 31.3601 84.4903 31.3601C84.2703 31.3601 84.0658 31.3982 83.8774 31.4749C83.6887 31.5482 83.5249 31.6543 83.385 31.7936C83.2487 31.9295 83.1407 32.0898 83.0603 32.2745C82.9836 32.4556 82.945 32.6558 82.945 32.8753C82.945 33.0913 82.9836 33.2916 83.0603 33.4763C83.1407 33.6608 83.2487 33.8227 83.385 33.962C83.5249 34.098 83.6887 34.2043 83.8774 34.281C84.0658 34.3541 84.2703 34.3907 84.4903 34.3907Z" fill="white"/>
<path d="M87.5469 34.7042V31.0466H87.9293V34.0772L90.276 31.0466H90.6269V34.7042H90.2444V31.679L87.898 34.7042H87.5469ZM89.0764 30.7801C88.8144 30.7801 88.6068 30.7208 88.4531 30.6024C88.3028 30.4839 88.2263 30.3186 88.2227 30.106H88.5106C88.5143 30.2456 88.5668 30.3553 88.6677 30.4351C88.7727 30.5152 88.9089 30.5553 89.0764 30.5553C89.244 30.5553 89.3785 30.5152 89.4798 30.4351C89.5844 30.3553 89.6386 30.2456 89.6422 30.106H89.9302C89.9265 30.3186 89.8481 30.4839 89.6944 30.6024C89.541 30.7208 89.3348 30.7801 89.0764 30.7801Z" fill="white"/>
<path d="M96.1631 34.7048L94.7543 32.8811L95.0685 32.6929L96.6085 34.7048H96.1631ZM93.6543 34.7048V31.0469H94.0314V34.7048H93.6543ZM93.9163 33.0274V32.6878H95.0634V33.0274H93.9163ZM95.1001 32.9177L94.7439 32.8548L96.111 31.0469H96.5298L95.1001 32.9177Z" fill="white"/>
<path d="M99.0174 34.7354C98.7418 34.7354 98.4851 34.69 98.2477 34.5997C98.0138 34.5055 97.8093 34.3749 97.6348 34.2077C97.4638 34.037 97.3293 33.8402 97.2314 33.6173C97.1372 33.3909 97.0898 33.1435 97.0898 32.8753C97.0898 32.607 97.1372 32.3616 97.2314 32.1385C97.3293 31.9121 97.4638 31.7152 97.6348 31.5482C97.8093 31.3773 98.0138 31.2467 98.2477 31.1562C98.4815 31.0622 98.7381 31.0151 99.0174 31.0151C99.2935 31.0151 99.5485 31.0622 99.7823 31.1562C100.016 31.2467 100.219 31.3756 100.39 31.5429C100.565 31.7101 100.699 31.907 100.793 32.1332C100.891 32.3597 100.94 32.607 100.94 32.8753C100.94 33.1435 100.891 33.3909 100.793 33.6173C100.699 33.8435 100.565 34.0404 100.39 34.2077C100.219 34.3749 100.016 34.5055 99.7823 34.5997C99.5485 34.69 99.2935 34.7354 99.0174 34.7354ZM99.0174 34.3907C99.2374 34.3907 99.4402 34.3541 99.6252 34.281C99.8136 34.2043 99.9761 34.098 100.112 33.962C100.252 33.8227 100.36 33.6628 100.437 33.4814C100.514 33.2969 100.552 33.0947 100.552 32.8753C100.552 32.6558 100.514 32.4556 100.437 32.2745C100.36 32.0898 100.252 31.9295 100.112 31.7936C99.9761 31.6543 99.8136 31.5482 99.6252 31.4749C99.4402 31.3982 99.2374 31.3601 99.0174 31.3601C98.7977 31.3601 98.5932 31.3982 98.4048 31.4749C98.2161 31.5482 98.0522 31.6543 97.9123 31.7936C97.7761 31.9295 97.668 32.0898 97.5877 32.2745C97.5109 32.4556 97.4723 32.6558 97.4723 32.8753C97.4723 33.0913 97.5109 33.2916 97.5877 33.4763C97.668 33.6608 97.7761 33.8227 97.9123 33.962C98.0522 34.098 98.2161 34.2043 98.4048 34.281C98.5932 34.3541 98.7977 34.3907 99.0174 34.3907Z" fill="white"/>
<path d="M102.074 34.7048V31.0469H102.394L104.07 33.9001H103.902L105.563 31.0469H105.882V34.7048H105.51V31.6271H105.599L104.07 34.2397H103.887L102.347 31.6271H102.446V34.7048H102.074Z" fill="white"/>
<path d="M107.326 34.7048V31.0469H110.411V34.7048H110.029V31.277L110.128 31.3814H107.609L107.709 31.277V34.7048H107.326Z" fill="white"/>
<path d="M111.536 34.7356C111.487 34.7356 111.439 34.732 111.394 34.7252C111.349 34.7215 111.298 34.7131 111.242 34.699L111.274 34.354C111.333 34.3681 111.391 34.3749 111.446 34.3749C111.603 34.3749 111.729 34.314 111.823 34.1921C111.921 34.0666 111.995 33.8751 112.043 33.6173C112.092 33.3561 112.124 33.0216 112.138 32.614L112.19 31.0464H114.678V34.7043H114.296V31.2765L114.395 31.3809H112.436L112.531 31.2712L112.483 32.6036C112.469 32.9694 112.443 33.2864 112.405 33.5547C112.366 33.8195 112.311 34.0406 112.237 34.2183C112.164 34.3924 112.07 34.523 111.954 34.6101C111.839 34.6936 111.699 34.7356 111.536 34.7356Z" fill="white"/>
<path d="M116.471 32.6825H118.409V33.0116H116.471V32.6825ZM116.513 34.3703H118.718V34.7048H116.125V31.0469H118.639V31.3814H116.513V34.3703Z" fill="white"/>
<path d="M122.296 34.7043L120.887 32.8806L121.201 32.6924L122.741 34.7043H122.296ZM119.787 34.7043V31.0464H120.164V34.7043H119.787ZM120.049 33.027V32.6874H121.196V33.027H120.049ZM121.233 32.9172L120.876 32.8543L122.243 31.0464H122.663L121.233 32.9172Z" fill="white"/>
<path d="M125.144 34.7354C124.868 34.7354 124.613 34.69 124.379 34.5997C124.145 34.5055 123.943 34.3749 123.771 34.2077C123.6 34.0404 123.466 33.8435 123.368 33.6173C123.274 33.3909 123.227 33.1435 123.227 32.8753C123.227 32.607 123.274 32.3597 123.368 32.1332C123.466 31.907 123.6 31.7101 123.771 31.5429C123.946 31.3756 124.15 31.2467 124.384 31.1562C124.618 31.0622 124.873 31.0151 125.149 31.0151C125.414 31.0151 125.664 31.0605 125.898 31.1511C126.132 31.2382 126.329 31.3705 126.49 31.5482L126.244 31.7936C126.093 31.6404 125.928 31.5307 125.746 31.4644C125.564 31.3948 125.369 31.3601 125.159 31.3601C124.939 31.3601 124.735 31.3982 124.547 31.4749C124.358 31.5482 124.194 31.6543 124.054 31.7936C123.914 31.9295 123.804 32.0898 123.724 32.2745C123.647 32.4556 123.609 32.6558 123.609 32.8753C123.609 33.0947 123.647 33.2969 123.724 33.4814C123.804 33.6628 123.914 33.8227 124.054 33.962C124.194 34.098 124.358 34.2043 124.547 34.281C124.735 34.3541 124.939 34.3907 125.159 34.3907C125.369 34.3907 125.564 34.3558 125.746 34.2861C125.928 34.2164 126.093 34.105 126.244 33.9516L126.49 34.1972C126.329 34.3749 126.132 34.5092 125.898 34.5997C125.664 34.69 125.412 34.7354 125.144 34.7354Z" fill="white"/>
<path d="M45.5785 27.03C44.6258 27.03 43.7988 26.8879 43.0979 26.6039C42.397 26.3198 41.8549 25.921 41.4716 25.4076C41.0883 24.8831 40.8965 24.2713 40.8965 23.5721C40.8965 22.8728 41.0826 22.2829 41.4549 21.8021C41.8275 21.3214 42.364 20.9554 43.0649 20.7041C43.7658 20.4528 44.6038 20.3272 45.5785 20.3272C46.5533 20.3272 47.391 20.4528 48.0919 20.7041C48.8038 20.9554 49.3459 21.3269 49.7182 21.8185C50.1015 22.2992 50.2933 22.8838 50.2933 23.5721C50.2933 24.2713 50.0961 24.8831 49.7018 25.4076C49.3185 25.921 48.7711 26.3198 48.0592 26.6039C47.3583 26.8879 46.5313 27.03 45.5785 27.03ZM45.5785 25.3584C46.3669 25.3584 46.9913 25.1945 47.4514 24.8667C47.9111 24.539 48.1413 24.0856 48.1413 23.5065C48.1413 22.9384 47.9111 22.4904 47.4514 22.1627C46.9913 21.8349 46.3669 21.671 45.5785 21.671C44.7899 21.671 44.1711 21.8349 43.7221 22.1627C43.2731 22.4904 43.0485 22.9384 43.0485 23.5065C43.0485 24.0856 43.2731 24.539 43.7221 24.8667C44.1711 25.1945 44.7899 25.3584 45.5785 25.3584ZM45.5785 21.4416C44.6915 21.4416 43.9302 21.3269 43.295 21.0974C42.6599 20.8571 42.1668 20.5129 41.8165 20.065C41.4769 19.6061 41.3071 19.0599 41.3071 18.4262C41.3071 17.7707 41.4823 17.208 41.8329 16.7382C42.1942 16.2575 42.6982 15.886 43.3441 15.6238C43.9903 15.3616 44.7352 15.2305 45.5785 15.2305C46.4326 15.2305 47.1828 15.3616 47.829 15.6238C48.4752 15.886 48.9789 16.2575 49.3405 16.7382C49.7018 17.208 49.8826 17.7707 49.8826 18.4262C49.8826 19.0599 49.7075 19.6061 49.3569 20.065C49.0173 20.5129 48.5246 20.8571 47.8784 21.0974C47.2322 21.3269 46.4656 21.4416 45.5785 21.4416ZM45.5785 20.1305C46.2574 20.1305 46.7942 19.9885 47.1885 19.7045C47.5828 19.4095 47.7799 19.0161 47.7799 18.5245C47.7799 18.011 47.5771 17.6122 47.1718 17.3282C46.7668 17.0441 46.2357 16.9021 45.5785 16.9021C44.9214 16.9021 44.3956 17.0441 44.0013 17.3282C43.607 17.6122 43.4098 18.011 43.4098 18.5245C43.4098 19.0161 43.6016 19.4095 43.9849 19.7045C44.3793 19.9885 44.9104 20.1305 45.5785 20.1305Z" fill="white"/>
<path d="M53.1741 26.8661V25.4403L57.7411 21.1138C58.1244 20.7533 58.409 20.4365 58.5952 20.1633C58.7816 19.8902 58.902 19.6389 58.9568 19.4095C59.0225 19.1691 59.0552 18.9451 59.0552 18.7375C59.0552 18.2131 58.8747 17.8089 58.5131 17.5248C58.1518 17.2298 57.6207 17.0823 56.9198 17.0823C56.361 17.0823 55.8519 17.1807 55.3919 17.3773C54.9429 17.574 54.5539 17.8744 54.2253 18.2787L52.7305 17.1315C53.1795 16.5306 53.782 16.0663 54.5376 15.7385C55.3042 15.3998 56.1585 15.2305 57.1003 15.2305C57.9326 15.2305 58.6555 15.367 59.2687 15.6402C59.8932 15.9024 60.3695 16.2793 60.6981 16.7709C61.0377 17.2626 61.2072 17.8471 61.2072 18.5245C61.2072 18.896 61.1582 19.2674 61.0594 19.6389C60.961 19.9994 60.7749 20.3818 60.501 20.7861C60.2271 21.1903 59.8274 21.6437 59.3017 22.1463L55.3755 25.8664L54.9319 25.0634H61.6509V26.8661H53.1741Z" fill="white"/>
<path d="M64.627 23.1624V21.458H69.1446V23.1624H64.627Z" fill="white"/>
<path d="M74.9871 26.8663V17.1972H71.1758V15.3945H80.9339V17.1972H77.1226V26.8663H74.9871Z" fill="white"/>
<path d="M89.4072 27.03C88.5091 27.03 87.6822 26.8825 86.9266 26.5875C86.1707 26.2925 85.5138 25.8828 84.955 25.3584C84.3965 24.823 83.9639 24.2003 83.6573 23.4901C83.3507 22.7691 83.1973 21.9824 83.1973 21.1302C83.1973 20.278 83.3507 19.4969 83.6573 18.7867C83.9639 18.0656 84.3965 17.4429 84.955 16.9185C85.5138 16.3831 86.1707 15.9679 86.9266 15.673C87.6822 15.378 88.5035 15.2305 89.3905 15.2305C90.2886 15.2305 91.1102 15.378 91.8548 15.673C92.6104 15.9679 93.2676 16.3831 93.8261 16.9185C94.3848 17.4429 94.8175 18.0656 95.1241 18.7867C95.4307 19.4969 95.5841 20.278 95.5841 21.1302C95.5841 21.9824 95.4307 22.7691 95.1241 23.4901C94.8175 24.2112 94.3848 24.8339 93.8261 25.3584C93.2676 25.8828 92.6104 26.2925 91.8548 26.5875C91.1102 26.8825 90.2942 27.03 89.4072 27.03ZM89.3905 25.1617C89.971 25.1617 90.5078 25.0634 91.0005 24.8667C91.4935 24.6701 91.9206 24.3915 92.2819 24.0309C92.6434 23.6595 92.9227 23.2334 93.1198 22.7527C93.328 22.261 93.4321 21.7202 93.4321 21.1302C93.4321 20.5403 93.328 20.0049 93.1198 19.5242C92.9227 19.0325 92.6434 18.6064 92.2819 18.2459C91.9206 17.8744 91.4935 17.5904 91.0005 17.3937C90.5078 17.197 89.971 17.0987 89.3905 17.0987C88.8101 17.0987 88.2736 17.197 87.7806 17.3937C87.2989 17.5904 86.8718 17.8744 86.4992 18.2459C86.1379 18.6064 85.8531 19.0325 85.6452 19.5242C85.448 20.0049 85.3493 20.5403 85.3493 21.1302C85.3493 21.7093 85.448 22.2446 85.6452 22.7363C85.8531 23.2279 86.1379 23.6595 86.4992 24.0309C86.8608 24.3915 87.2879 24.6701 87.7806 24.8667C88.2736 25.0634 88.8101 25.1617 89.3905 25.1617Z" fill="white"/>
<path d="M101.848 26.8663L98.0371 15.3945H100.255L103.655 25.7683H102.555L106.087 15.3945H108.058L111.492 25.7683H110.424L113.906 15.3945H115.943L112.132 26.8663H109.865L106.727 17.5086H107.319L104.132 26.8663H101.848Z" fill="white"/>
<path d="M121.297 20.1635H127.014V21.917H121.297V20.1635ZM121.462 25.0799H127.951V26.8663H119.326V15.3945H127.721V17.1808H121.462V25.0799Z" fill="white"/>
<path d="M131.975 26.8663V15.3945H136.706C137.725 15.3945 138.595 15.5584 139.318 15.8861C140.052 16.2139 140.616 16.6837 141.01 17.2956C141.404 17.9074 141.601 18.6339 141.601 19.4752C141.601 20.3164 141.404 21.043 141.01 21.6548C140.616 22.2557 140.052 22.7201 139.318 23.0478C138.595 23.3647 137.725 23.5231 136.706 23.5231H133.158L134.11 22.5562V26.8663H131.975ZM139.499 26.8663L136.591 22.7037H138.874L141.798 26.8663H139.499ZM134.11 22.7856L133.158 21.7695H136.607C137.549 21.7695 138.256 21.5674 138.727 21.1632C139.208 20.7589 139.449 20.1963 139.449 19.4752C139.449 18.7432 139.208 18.1805 138.727 17.7872C138.256 17.3939 137.549 17.1972 136.607 17.1972H133.158L134.11 16.1484V22.7856Z" fill="white"/>
<path d="M149.198 27.03C148.3 27.03 147.441 26.9043 146.619 26.653C145.798 26.3908 145.146 26.0576 144.664 25.6534L145.403 23.9981C145.863 24.3587 146.433 24.6592 147.112 24.8995C147.791 25.1399 148.486 25.26 149.198 25.26C149.8 25.26 150.288 25.1945 150.66 25.0634C151.033 24.9323 151.306 24.7575 151.482 24.539C151.657 24.3095 151.745 24.0528 151.745 23.7687C151.745 23.4191 151.619 23.1405 151.367 22.9329C151.115 22.7144 150.786 22.5451 150.381 22.4249C149.987 22.2938 149.543 22.1736 149.051 22.0643C148.568 21.9551 148.081 21.8295 147.588 21.6874C147.106 21.5345 146.663 21.3433 146.258 21.1138C145.863 20.8735 145.54 20.5566 145.288 20.1633C145.036 19.77 144.911 19.2674 144.911 18.6556C144.911 18.0328 145.075 17.4647 145.403 16.9512C145.743 16.4268 146.252 16.0116 146.931 15.7057C147.621 15.3889 148.492 15.2305 149.543 15.2305C150.233 15.2305 150.918 15.3179 151.597 15.4927C152.276 15.6675 152.867 15.9188 153.371 16.2465L152.697 17.9017C152.183 17.5958 151.652 17.3719 151.104 17.2298C150.556 17.0769 150.031 17.0004 149.527 17.0004C148.935 17.0004 148.453 17.0714 148.081 17.2134C147.72 17.3555 147.451 17.5412 147.276 17.7706C147.112 18.0001 147.03 18.2623 147.03 18.5573C147.03 18.9069 147.15 19.1909 147.391 19.4095C147.643 19.617 147.966 19.7809 148.36 19.9011C148.766 20.0213 149.215 20.1415 149.707 20.2616C150.2 20.3709 150.688 20.4965 151.17 20.6386C151.662 20.7806 152.106 20.9663 152.5 21.1958C152.906 21.4252 153.229 21.7366 153.469 22.1299C153.721 22.5232 153.847 23.0203 153.847 23.6212C153.847 24.2331 153.678 24.8012 153.338 25.3256C153.009 25.8391 152.5 26.2543 151.81 26.5711C151.12 26.877 150.25 27.03 149.198 27.03Z" fill="white"/>
<path d="M34.8118 43.6421C34.5802 43.5078 34.2426 43.3067 33.7995 43.0754C33.3569 42.8425 32.816 42.563 32.1782 42.2792C31.912 42.1574 31.628 42.033 31.329 41.9077C31.0094 41.7738 30.7979 41.4632 30.7979 41.1169V29.4969C30.7979 29.1585 30.5232 28.884 30.1847 28.884C29.8462 28.884 29.5715 29.1585 29.5715 29.4969V40.0152C29.5715 40.5686 29.1011 40.9911 28.5595 40.8774C28.2089 40.8041 27.8845 40.4653 27.8845 40.1071V23.3435C27.8845 23.007 27.6117 22.7342 27.2752 22.7342C26.9387 22.7342 26.6659 23.007 26.6659 23.3435V40.3173C26.6659 40.3435 26.6414 40.3627 26.6159 40.3565C26.372 40.2984 26.1258 40.2403 25.8772 40.1813C25.6277 40.1229 25.3758 40.0648 25.1215 40.0059C25.0509 39.9898 25.0012 39.9272 25.0012 39.855V17.1842C25.0012 14.8325 24.0865 12.6222 22.4259 10.9592L17.4215 5.97176C17.2622 5.81299 17.1726 5.59734 17.1726 5.37243V0.434743C17.1726 0.194641 16.978 0 16.7379 0C16.4978 0 16.3032 0.194641 16.3032 0.434743V12.5865C16.3032 12.8107 16.2142 13.0258 16.0557 13.1844L12.7364 16.5084C12.5289 16.7161 12.3328 16.9328 12.1487 17.1568C11.6046 17.8197 11.1662 18.5513 10.8408 19.329C10.836 19.3403 10.8303 19.3509 10.8263 19.3622C10.8029 19.4196 10.7819 19.4778 10.7593 19.5352C10.7302 19.6104 10.6996 19.6855 10.6721 19.7616C10.6713 19.764 10.6705 19.7664 10.6697 19.7688C10.3355 20.7074 10.1611 21.7067 10.1611 22.7326V39.8507C10.1611 39.9232 10.1108 39.987 10.04 40.0025C9.78487 40.0592 9.53297 40.1181 9.28431 40.1779C9.03566 40.2369 8.78864 40.2961 8.54562 40.3542C8.51919 40.3604 8.49395 40.3404 8.49395 40.3133V23.3713C8.49395 23.0186 8.20798 22.7326 7.85519 22.7326C7.5024 22.7326 7.21642 23.0186 7.21642 23.3713V40.1339C7.21642 40.4761 6.89641 40.7973 6.57033 40.9014C6.06653 41.0622 5.63468 40.6811 5.63468 40.1523V29.5178C5.63468 29.1672 5.3506 28.8829 5.00001 28.8829C4.64908 28.8826 4.36452 29.1669 4.36452 29.5178V41.1126C4.36452 41.4593 4.15287 41.7695 3.83345 41.9038C3.5343 42.0293 3.25014 42.1543 2.9832 42.2758C2.34621 42.5604 1.80531 42.8402 1.3629 43.0729C0.919681 43.305 0.582221 43.5064 0.351328 43.6404C0.306902 43.6675 0.338503 43.7366 0.387659 43.7196C0.640349 43.6347 1.0101 43.5104 1.48158 43.3518C1.95305 43.1967 2.52786 43.0204 3.18665 42.8224C3.84622 42.6292 4.59623 42.4278 5.41161 42.2217C6.23023 42.0211 7.12151 41.8288 8.06447 41.6429L8.15408 41.626L8.17667 41.6217L8.18798 41.6195C8.1855 41.6201 8.20338 41.6181 8.20589 41.6178L8.22591 41.6144L8.40837 41.5862C8.53028 41.5667 8.653 41.5476 8.77651 41.5289C9.02356 41.49 9.27382 41.4511 9.52733 41.4108C9.78081 41.3721 10.0359 41.3307 10.2935 41.2864C10.4218 41.2644 10.5518 41.2427 10.6818 41.221C10.8037 41.2046 10.9264 41.1885 11.0499 41.1724C12.0881 41.0365 13.1635 40.933 14.2582 40.8594C15.3529 40.7908 16.4654 40.7488 17.5908 40.7519C18.1495 40.7618 18.7082 40.7714 19.2644 40.781L19.3702 40.7826H19.3968H19.4065L19.438 40.7852L19.6487 40.7987L20.0701 40.8238C20.351 40.8407 20.6304 40.858 20.9089 40.874C21.1874 40.8901 21.4651 40.907 21.7412 40.9234L21.8446 40.929H21.8554C21.8568 40.929 21.8574 40.929 21.8588 40.9293C21.8612 40.9299 21.8644 40.9307 21.8669 40.931L21.9035 40.9355L22.1086 40.9589C22.245 40.9742 22.3814 40.9897 22.5179 41.0049C23.062 41.0647 23.5997 41.1239 24.1277 41.182C24.2464 41.195 24.3651 41.2071 24.4821 41.2201C24.6121 41.2418 24.7413 41.2635 24.8704 41.2855C25.1288 41.3267 25.3839 41.3679 25.6366 41.4091C25.8893 41.4488 26.1395 41.4875 26.3874 41.5264C26.5109 41.5459 26.6336 41.5653 26.7555 41.584L26.938 41.6122L26.9832 41.6195C27.0034 41.6234 26.9679 41.6153 26.9759 41.617L26.9872 41.6195L27.0098 41.6234L27.0986 41.6404C28.0424 41.8279 28.9338 42.0189 29.7515 42.2208C30.5677 42.4295 31.3169 42.6284 31.9766 42.8233C32.6343 43.0213 33.21 43.1976 33.6816 43.3527C34.1529 43.5112 34.5227 43.6364 34.7754 43.7213C34.8253 43.7385 34.8569 43.6694 34.8118 43.6421ZM11.0293 22.7342C11.0296 22.7342 11.0297 22.734 11.0297 22.7338C11.0297 22.7321 11.0297 22.7256 11.0297 22.7221C11.033 20.6605 11.8605 18.6435 13.3031 17.1729C13.3185 17.1568 13.3338 17.1398 13.3492 17.1244L14.8558 15.6153C15.3886 15.0816 16.3007 15.4589 16.3007 16.2131V17.3951C16.3007 17.6193 16.2117 17.8344 16.0533 17.9931L12.734 21.317C12.2181 21.8336 11.7752 22.4032 11.4089 23.0134C11.3088 23.18 11.0289 23.1115 11.0289 22.9171V22.7346C11.0289 22.7344 11.0291 22.7342 11.0293 22.7342ZM11.6856 27.7128C11.7285 27.6013 11.7961 27.4988 11.8807 27.4143C13.5349 25.763 12.3476 26.7013 13.807 25.2391L16.3015 22.5547L12.7348 26.1264C12.1794 26.6826 11.7086 27.3001 11.327 27.9636C11.2547 28.0892 11.4038 28.2071 11.514 28.113C11.531 28.0986 11.544 28.0801 11.552 28.0593L11.6856 27.7128ZM11.0297 32.3513C11.0297 30.2325 11.854 28.2404 13.35 26.7416L14.8567 25.2329C15.3895 24.6993 16.3015 25.0766 16.3015 25.8308V27.0132C16.3015 27.2374 16.2126 27.4524 16.0541 27.6111L12.7348 30.9351C12.2631 31.4075 11.8523 31.924 11.5055 32.4757C11.3783 32.6776 11.0297 32.591 11.0297 32.3521V32.3513ZM14.4393 34.2881C14.4746 34.241 14.5148 34.1976 14.5591 34.159L16.2466 32.681C16.2815 32.6505 16.3015 32.6063 16.3015 32.56C16.3015 32.4164 16.1281 32.3448 16.0268 32.4463L12.7348 35.743C12.215 36.2633 11.7677 36.8396 11.3982 37.4598C11.3381 37.5605 11.4578 37.6412 11.5337 37.5517C11.5378 37.547 11.5417 37.5413 11.5448 37.5357C12.7197 35.4581 11.8735 37.2037 13.3057 35.7869C13.3341 35.7587 13.362 35.7269 13.386 35.6947L14.4393 34.2881ZM14.1408 39.3859C14.1409 39.3859 14.1408 39.3856 14.1406 39.3856C13.5427 39.4381 12.9521 39.5075 12.371 39.5901C11.8976 39.6575 11.5095 39.2167 11.7006 38.7784C12.0912 37.8823 12.6456 37.0632 13.35 36.3581L14.8567 34.8494C15.3895 34.3158 16.3015 34.6932 16.3015 35.4471V38.6952C16.3015 39.0071 16.0541 39.2624 15.7425 39.2768C15.2057 39.3016 14.6706 39.3366 14.1409 39.3865C14.1407 39.3865 14.1406 39.3862 14.1408 39.3859ZM17.5711 39.2277C17.5712 39.2277 17.5711 39.228 17.5709 39.228C17.4379 39.228 17.3049 39.2319 17.1718 39.2336V6.9518V9.02559V39.2336C16.6957 39.2215 18.0473 39.2393 17.5713 39.2271C17.5711 39.2271 17.5709 39.2274 17.5711 39.2277ZM20.1763 39.3326C20.176 39.3323 20.1757 39.3323 20.1753 39.3323L20.0891 39.325C19.9665 39.3146 19.8723 39.2119 19.8723 39.0889V11.5833C19.8723 10.8661 20.7387 10.5064 21.2467 11.0125C21.3984 11.1637 21.4837 11.3691 21.4837 11.5833V38.9716C21.4837 39.2254 21.2669 39.4243 21.0139 39.4034C20.7355 39.38 20.4572 39.3566 20.1772 39.3332C20.1769 39.3332 20.1765 39.3329 20.1763 39.3326ZM22.7056 39.5958C22.7054 39.5955 22.7049 39.5949 22.7043 39.5949C22.6605 39.5882 22.6167 39.5814 22.5728 39.5746C22.4465 39.5552 22.3532 39.4466 22.3532 39.3188V17.1487C22.3532 16.4131 22.1086 16.3888 22.1086 17.1244V38.9236C22.1086 39.2771 22.2465 39.5873 22.5994 39.6099C22.7791 39.6214 22.8879 39.6251 22.707 39.5969C22.7065 39.5966 22.7059 39.5963 22.7056 39.5958Z" fill="url(#paint0_linear_1601_176487)"/>
</g>
<defs>
<linearGradient id="paint0_linear_1601_176487" x1="-1.46356" y1="7.45868" x2="28.3783" y2="50.3094" gradientUnits="userSpaceOnUse">
<stop stop-color="#A58038"/>
<stop offset="0.5" stop-color="#FFCB7B"/>
<stop offset="1" stop-color="#A58038"/>
</linearGradient>
<clipPath id="clip0_1601_176487">
<rect width="154" height="44" fill="white"/>
</clipPath>
</defs>
</svg>
